<svg width="37" height="36" viewBox="0 0 37 36" fill="none" xmlns="http://www.w3.org/2000/svg">
<g clip-path="url(#clip0_1_156)">
<g filter="url(#filter0_d_1_156)">
<path d="M18.5 16.875C17.2762 16.875 16.0799 16.5121 15.0624 15.8322C14.0449 15.1523 13.2518 14.186 12.7835 13.0554C12.3152 11.9247 12.1926 10.6806 12.4314 9.48038C12.6701 8.28012 13.2594 7.17762 14.1248 6.31228C14.9901 5.44694 16.0926 4.85764 17.2929 4.61889C18.4931 4.38015 19.7372 4.50268 20.8679 4.971C21.9985 5.43932 22.9648 6.23238 23.6447 7.24991C24.3246 8.26744 24.6875 9.46373 24.6875 10.6875C24.6856 12.328 24.0331 13.9007 22.8732 15.0607C21.7132 16.2206 20.1405 16.8731 18.5 16.875ZM26.9375 18C25.7137 18 24.5174 18.3629 23.4999 19.0428C22.4824 19.7227 21.6893 20.689 21.221 21.8196C20.7527 22.9503 20.6301 24.1944 20.8689 25.3946C21.1076 26.5949 21.6969 27.6974 22.5623 28.5627C23.4276 29.4281 24.5301 30.0174 25.7304 30.2561C26.9306 30.4949 28.1747 30.3723 29.3054 29.904C30.436 29.4357 31.4023 28.6426 32.0822 27.6251C32.7621 26.6076 33.125 25.4113 33.125 24.1875C33.1231 22.547 32.4706 20.9743 31.3107 19.8143C30.1507 18.6544 28.578 18.0019 26.9375 18ZM10.0625 18C8.83873 18 7.64244 18.3629 6.62491 19.0428C5.60738 19.7227 4.81432 20.689 4.346 21.8196C3.87768 22.9503 3.75515 24.1944 3.99389 25.3946C4.23264 26.5949 4.82194 27.6974 5.68728 28.5627C6.55262 29.4281 7.65512 30.0174 8.85538 30.2561C10.0556 30.4949 11.2997 30.3723 12.4304 29.904C13.561 29.4357 14.5273 28.6426 15.2072 27.6251C15.8871 26.6076 16.25 25.4113 16.25 24.1875C16.2481 22.547 15.5956 20.9743 14.4357 19.8143C13.2757 18.6544 11.703 18.0019 10.0625 18Z" fill="url(#paint0_linear_1_156)"/>
</g>
</g>
<defs>
<filter id="filter0_d_1_156" x="-20.125" y="-7.5" width="77.25" height="73.875" filterUnits="userSpaceOnUse" color-interpolation-filters="sRGB">
<feFlood flood-opacity="0" result="BackgroundImageFix"/>
<feColorMatrix in="SourceAlpha" type="matrix" values="0 0 0 0 0 0 0 0 0 0 0 0 0 0 0 0 0 0 127 0" result="hardAlpha"/>
<feOffset dy="12"/>
<feGaussianBlur stdDeviation="12"/>
<feColorMatrix type="matrix" values="0 0 0 0 0.231373 0 0 0 0 0.615686 0 0 0 0 0.94902 0 0 0 0.13 0"/>
<feBlend mode="normal" in2="BackgroundImageFix" result="effect1_dropShadow_1_156"/>
<feBlend mode="normal" in="SourceGraphic" in2="effect1_dropShadow_1_156" result="shape"/>
</filter>
<linearGradient id="paint0_linear_1_156" x1="18.5" y1="4.5" x2="18.5" y2="30.375" gradientUnits="userSpaceOnUse">
<stop stop-color="#8FB2E6"/>
<stop offset="1" stop-color="#7099D7"/>
</linearGradient>
<clipPath id="clip0_1_156">
<rect width="36" height="36" fill="white" transform="translate(0.5)"/>
</clipPath>
</defs>
</svg>
