<svg width="48" height="48" viewBox="0 0 48 48" fill="none" xmlns="http://www.w3.org/2000/svg">
<rect width="48" height="48" rx="24" fill="url(#paint0_linear_26_31)"/>
<path d="M33 23.25C32.0054 23.25 31.0516 22.8549 30.3484 22.1517C29.6451 21.4484 29.25 20.4946 29.25 19.5C29.25 19.3011 29.171 19.1103 29.0303 18.9697C28.8897 18.829 28.6989 18.75 28.5 18.75C27.5054 18.75 26.5516 18.3549 25.8484 17.6517C25.1451 16.9484 24.75 15.9946 24.75 15C24.75 14.8011 24.671 14.6103 24.5303 14.4697C24.3897 14.329 24.1989 14.25 24 14.25C22.0716 14.25 20.1866 14.8218 18.5832 15.8932C16.9798 16.9645 15.7301 18.4873 14.9922 20.2688C14.2542 22.0504 14.0611 24.0108 14.4373 25.9021C14.8136 27.7934 15.7422 29.5307 17.1057 30.8943C18.4693 32.2579 20.2066 33.1865 22.0979 33.5627C23.9892 33.9389 25.9496 33.7458 27.7312 33.0078C29.5127 32.2699 31.0355 31.0202 32.1068 29.4168C33.1782 27.8134 33.75 25.9284 33.75 24C33.75 23.8011 33.671 23.6103 33.5303 23.4697C33.3897 23.329 33.1989 23.25 33 23.25ZM19.0791 21.3291C19.2366 21.1721 19.437 21.0654 19.6551 21.0223C19.8733 20.9792 20.0993 21.0017 20.3046 21.0869C20.5099 21.1722 20.6854 21.3164 20.8089 21.5013C20.9323 21.6862 20.9982 21.9036 20.9982 22.1259C20.9982 22.3483 20.9323 22.5656 20.8089 22.7505C20.6854 22.9355 20.5099 23.0797 20.3046 23.1649C20.0993 23.2502 19.8733 23.2727 19.6551 23.2296C19.437 23.1865 19.2366 23.0798 19.0791 22.9228C18.9742 22.8183 18.891 22.6941 18.8342 22.5574C18.7774 22.4206 18.7482 22.274 18.7482 22.1259C18.7482 21.9779 18.7774 21.8313 18.8342 21.6945C18.891 21.5578 18.9742 21.4336 19.0791 21.3291ZM21.4228 28.1728C21.2653 28.3298 21.0649 28.4365 20.8467 28.4796C20.6286 28.5227 20.4026 28.5002 20.1973 28.4149C19.9919 28.3297 19.8165 28.1855 19.693 28.0005C19.5696 27.8156 19.5037 27.5983 19.5037 27.3759C19.5037 27.1536 19.5696 26.9362 19.693 26.7513C19.8165 26.5664 19.9919 26.4222 20.1973 26.3369C20.4026 26.2517 20.6286 26.2292 20.8467 26.2723C21.0649 26.3154 21.2653 26.4221 21.4228 26.5791C21.5273 26.6837 21.6101 26.8078 21.6666 26.9445C21.723 27.0811 21.752 27.2275 21.7518 27.3754C21.7517 27.5232 21.7223 27.6696 21.6656 27.8061C21.6088 27.9426 21.5257 28.0666 21.4209 28.1709L21.4228 28.1728ZM23.5791 24.4228C23.4221 24.2653 23.3154 24.0649 23.2723 23.8467C23.2292 23.6286 23.2517 23.4026 23.337 23.1973C23.4222 22.9919 23.5664 22.8165 23.7513 22.693C23.9363 22.5696 24.1536 22.5037 24.3759 22.5037C24.5983 22.5037 24.8156 22.5696 25.0006 22.693C25.1855 22.8165 25.3297 22.9919 25.4149 23.1973C25.5002 23.4026 25.5227 23.6286 25.4796 23.8467C25.4365 24.0649 25.3298 24.2653 25.1728 24.4228C25.0682 24.5276 24.9439 24.6106 24.8071 24.6673C24.6703 24.7239 24.5236 24.7529 24.3756 24.7528C24.2275 24.7526 24.0809 24.7232 23.9442 24.6662C23.8076 24.6093 23.6835 24.5259 23.5791 24.4209V24.4228ZM27.4228 28.9228C27.2653 29.0798 27.0649 29.1865 26.8467 29.2296C26.6286 29.2727 26.4026 29.2502 26.1973 29.1649C25.9919 29.0797 25.8165 28.9355 25.693 28.7505C25.5696 28.5656 25.5037 28.3483 25.5037 28.1259C25.5037 27.9036 25.5696 27.6862 25.693 27.5013C25.8165 27.3164 25.9919 27.1722 26.1973 27.0869C26.4026 27.0017 26.6286 26.9792 26.8467 27.0223C27.0649 27.0654 27.2653 27.1721 27.4228 27.3291C27.5273 27.4337 27.6101 27.5578 27.6666 27.6945C27.723 27.8311 27.752 27.9775 27.7518 28.1254C27.7517 28.2732 27.7223 28.4196 27.6656 28.5561C27.6088 28.6926 27.5257 28.8166 27.4209 28.9209L27.4228 28.9228Z" fill="white"/>
<defs>
<linearGradient id="paint0_linear_26_31" x1="24" y1="0" x2="24" y2="48" gradientUnits="userSpaceOnUse">
<stop stop-color="#FFC49A"/>
<stop offset="1" stop-color="#FF974D"/>
</linearGradient>
</defs>
</svg>
