<svg width="21" height="20" viewBox="0 0 21 20" fill="none" xmlns="http://www.w3.org/2000/svg">
<path d="M15.3741 9.12379L11.0815 13.7531C11.0416 13.7962 10.9943 13.8303 10.9422 13.8536C10.8901 13.8769 10.8342 13.8889 10.7778 13.8889C10.7214 13.8889 10.6655 13.8769 10.6134 13.8536C10.5613 13.8303 10.514 13.7962 10.4741 13.7531L6.18147 9.12379C6.12137 9.05904 6.08043 8.97652 6.06384 8.88668C6.04725 8.79683 6.05575 8.70369 6.08827 8.61905C6.12078 8.53442 6.17586 8.46209 6.24651 8.41123C6.31716 8.36037 6.40022 8.33326 6.48517 8.33333H15.0704C15.1554 8.33326 15.2384 8.36037 15.3091 8.41123C15.3797 8.46209 15.4348 8.53442 15.4673 8.61905C15.4998 8.70369 15.5083 8.79683 15.4917 8.88668C15.4752 8.97652 15.4342 9.05904 15.3741 9.12379Z" fill="#27272B"/>
</svg>
