<svg width="21" height="20" viewBox="0 0 21 20" fill="none" xmlns="http://www.w3.org/2000/svg">
<path fill-rule="evenodd" clip-rule="evenodd" d="M16.3345 6.66667V6.66667C16.3408 6.62021 16.3408 6.57312 16.3345 6.52667C16.3287 6.48753 16.3175 6.44938 16.3012 6.41333V6.41333C16.2836 6.38075 16.2635 6.34955 16.2412 6.32C16.2158 6.27784 16.1844 6.23965 16.1478 6.20667L16.0678 6.16C16.0294 6.1313 15.9866 6.10881 15.9412 6.09333H15.8078V6.09333C15.7672 6.054 15.7198 6.02237 15.6678 6H12.3345V6C11.9663 6 11.6678 6.29848 11.6678 6.66667C11.6678 7.03486 11.9663 7.33333 12.3345 7.33333H14.2212L11.5545 10.4733L8.6745 8.76C8.39269 8.59239 8.03084 8.65458 7.82117 8.90667L4.48784 12.9067H4.48784C4.25214 13.1895 4.29036 13.6099 4.57322 13.8456C4.57365 13.846 4.57408 13.8463 4.5745 13.8467C4.69444 13.9461 4.8454 14.0003 5.00117 14C5.19946 14.0003 5.3876 13.9124 5.5145 13.76L8.48117 10.2L11.3278 11.9067C11.6066 12.072 11.9638 12.0129 12.1745 11.7667L15.0012 8.46667V10C15.0012 10.3682 15.2996 10.6667 15.6678 10.6667C16.036 10.6667 16.3345 10.3682 16.3345 10V6.66667V6.66667Z" fill="#4B8F51"/>
</svg>
