<svg width="20" height="20" viewBox="0 0 20 20" fill="none" xmlns="http://www.w3.org/2000/svg">
<path d="M15.6569 15.32C15.7251 15.4011 15.7688 15.4999 15.7827 15.605C15.7966 15.71 15.7802 15.8168 15.7354 15.9128C15.6906 16.0088 15.6194 16.09 15.53 16.1469C15.4406 16.2038 15.3369 16.234 15.2309 16.2339H3.55583C3.44995 16.2338 3.34628 16.2036 3.25701 16.1466C3.16774 16.0897 3.09659 16.0085 3.05191 15.9125C3.00724 15.8165 2.9909 15.7097 3.00483 15.6048C3.01875 15.4998 3.06236 15.401 3.13052 15.32C4.16877 14.0844 5.45998 13.2067 6.89505 12.7369C6.02352 12.1941 5.35249 11.3822 4.98348 10.424C4.61447 9.46586 4.56757 8.41359 4.84985 7.42641C5.13214 6.43922 5.72827 5.57083 6.54804 4.95262C7.36782 4.3344 8.36663 4 9.39339 4C10.4201 4 11.419 4.3344 12.2387 4.95262C13.0585 5.57083 13.6546 6.43922 13.9369 7.42641C14.2192 8.41359 14.1723 9.46586 13.8033 10.424C13.4343 11.3822 12.7633 12.1941 11.8917 12.7369C13.3268 13.2067 14.618 14.0844 15.6569 15.32ZM19.0657 12.4811C19.0168 12.5658 18.9465 12.636 18.8618 12.6848C18.7771 12.7336 18.6811 12.7593 18.5834 12.7591C18.4858 12.7594 18.3898 12.7338 18.3054 12.6848L17.9809 12.4971C17.8255 12.6304 17.647 12.7338 17.4541 12.8022V13.1761C17.4541 13.3235 17.3955 13.4649 17.2912 13.5692C17.187 13.6735 17.0456 13.732 16.8981 13.732C16.7507 13.732 16.6093 13.6735 16.505 13.5692C16.4007 13.4649 16.3422 13.3235 16.3422 13.1761V12.8022C16.1493 12.7338 15.9707 12.6304 15.8154 12.4971L15.4909 12.6848C15.4064 12.7338 15.3105 12.7594 15.2129 12.7591C15.0905 12.7592 14.9714 12.7188 14.8743 12.6443C14.7772 12.5698 14.7073 12.4653 14.6756 12.347C14.644 12.2288 14.6522 12.1034 14.6991 11.9903C14.746 11.8772 14.8288 11.7827 14.9349 11.7216L15.2587 11.5346C15.2208 11.3335 15.2208 11.127 15.2587 10.9258L14.9349 10.7389C14.8717 10.7024 14.8162 10.6538 14.7718 10.5959C14.7273 10.5379 14.6947 10.4718 14.6758 10.4013C14.6569 10.3308 14.652 10.2572 14.6616 10.1848C14.6711 10.1124 14.6948 10.0426 14.7313 9.97933C14.7678 9.91608 14.8164 9.86065 14.8743 9.81619C14.9322 9.77173 14.9984 9.73911 15.0689 9.7202C15.1394 9.7013 15.213 9.69647 15.2854 9.70599C15.3578 9.71551 15.4276 9.7392 15.4909 9.77571L15.8154 9.96334C15.9707 9.83009 16.1493 9.72666 16.3422 9.65826V9.28438C16.3422 9.13693 16.4007 8.99552 16.505 8.89126C16.6093 8.787 16.7507 8.72842 16.8981 8.72842C17.0456 8.72842 17.187 8.787 17.2912 8.89126C17.3955 8.99552 17.4541 9.13693 17.4541 9.28438V9.65826C17.647 9.72666 17.8255 9.83009 17.9809 9.96334L18.3054 9.77571C18.3686 9.7392 18.4385 9.71551 18.5109 9.70599C18.5833 9.69647 18.6568 9.7013 18.7274 9.7202C18.7979 9.73911 18.864 9.77173 18.9219 9.81619C18.9799 9.86065 19.0285 9.91608 19.065 9.97933C19.1015 10.0426 19.1252 10.1124 19.1347 10.1848C19.1442 10.2572 19.1394 10.3308 19.1205 10.4013C19.1016 10.4718 19.069 10.5379 19.0245 10.5959C18.98 10.6538 18.9246 10.7024 18.8614 10.7389L18.5375 10.9258C18.5755 11.127 18.5755 11.3335 18.5375 11.5346L18.8614 11.7216C18.9247 11.758 18.9802 11.8066 19.0247 11.8645C19.0693 11.9224 19.1019 11.9885 19.1209 12.059C19.1399 12.1296 19.1448 12.2031 19.1353 12.2756C19.1258 12.348 19.1022 12.4179 19.0657 12.4811ZM16.8988 11.7862C17.0088 11.7862 17.1163 11.7536 17.2077 11.6925C17.2991 11.6314 17.3704 11.5446 17.4125 11.443C17.4545 11.3414 17.4655 11.2296 17.4441 11.1218C17.4226 11.0139 17.3697 10.9149 17.2919 10.8371C17.2142 10.7594 17.1151 10.7064 17.0073 10.685C16.8994 10.6635 16.7877 10.6745 16.6861 10.7166C16.5845 10.7587 16.4976 10.8299 16.4366 10.9214C16.3755 11.0128 16.3429 11.1203 16.3429 11.2302C16.3429 11.3777 16.4014 11.5191 16.5057 11.6234C16.61 11.7276 16.7514 11.7862 16.8988 11.7862Z" fill="#95A0B1"/>
</svg>
