<svg width="20" height="20" viewBox="0 0 20 20" fill="none" xmlns="http://www.w3.org/2000/svg">
<path d="M16.875 10.1687C16.8781 10.0562 16.8781 9.94375 16.875 9.83125L18.0406 8.375C18.1017 8.29854 18.144 8.20879 18.1641 8.11299C18.1842 8.01718 18.1815 7.918 18.1562 7.82343C17.9648 7.10527 17.679 6.41567 17.3062 5.77265C17.2574 5.68853 17.1896 5.61696 17.1082 5.56366C17.0268 5.51036 16.9341 5.47679 16.8375 5.46562L14.9844 5.25937C14.9073 5.17812 14.8291 5.1 14.75 5.025L14.5312 3.16719C14.52 3.07048 14.4863 2.97773 14.4328 2.89635C14.3794 2.81497 14.3077 2.74719 14.2234 2.69844C13.5804 2.32597 12.8908 2.04066 12.1726 1.85C12.0781 1.82473 11.9789 1.82203 11.8831 1.84212C11.7873 1.8622 11.6975 1.9045 11.6211 1.96562L10.1687 3.125C10.0562 3.125 9.94372 3.125 9.83122 3.125L8.37497 1.96172C8.29851 1.9006 8.20877 1.85829 8.11297 1.83821C8.01716 1.81813 7.91798 1.82083 7.82341 1.84609C7.10525 2.03752 6.41564 2.32334 5.77263 2.69609C5.6885 2.74494 5.61694 2.81275 5.56364 2.89413C5.51034 2.97551 5.47677 3.0682 5.4656 3.16484L5.25935 5.02109C5.1781 5.0987 5.09997 5.17682 5.02497 5.25547L3.16716 5.46875C3.07045 5.48 2.97771 5.51369 2.89633 5.56713C2.81494 5.62057 2.74717 5.69229 2.69841 5.77656C2.32603 6.41966 2.04047 7.10925 1.84919 7.82734C1.82403 7.92197 1.82146 8.02119 1.84168 8.11699C1.8619 8.2128 1.90435 8.30251 1.9656 8.3789L3.12497 9.83125C3.12497 9.94375 3.12497 10.0562 3.12497 10.1687L1.96169 11.625C1.90057 11.7015 1.85827 11.7912 1.83819 11.887C1.8181 11.9828 1.8208 12.082 1.84607 12.1766C2.0375 12.8947 2.32332 13.5843 2.69607 14.2273C2.74492 14.3115 2.81273 14.383 2.89411 14.4363C2.97548 14.4896 3.06818 14.5232 3.16482 14.5344L5.01794 14.7406C5.09555 14.8219 5.17367 14.9 5.25232 14.975L5.46872 16.8328C5.47998 16.9295 5.51367 17.0223 5.56711 17.1036C5.62055 17.185 5.69227 17.2528 5.77654 17.3016C6.41963 17.6739 7.10923 17.9595 7.82732 18.1508C7.92195 18.1759 8.02116 18.1785 8.11697 18.1583C8.21277 18.1381 8.30249 18.0956 8.37888 18.0344L9.83122 16.875C9.94372 16.8781 10.0562 16.8781 10.1687 16.875L11.625 18.0406C11.7014 18.1017 11.7912 18.144 11.887 18.1641C11.9828 18.1842 12.082 18.1815 12.1765 18.1562C12.8948 17.9652 13.5845 17.6793 14.2273 17.3062C14.3114 17.2574 14.383 17.1896 14.4363 17.1082C14.4896 17.0268 14.5232 16.9341 14.5343 16.8375L14.7406 14.9844C14.8218 14.9073 14.9 14.8292 14.975 14.75L16.8328 14.5312C16.9295 14.52 17.0222 14.4863 17.1036 14.4329C17.185 14.3794 17.2528 14.3077 17.3015 14.2234C17.6739 13.5803 17.9595 12.8907 18.1508 12.1727C18.1759 12.078 18.1785 11.9788 18.1583 11.883C18.138 11.7872 18.0956 11.6975 18.0343 11.6211L16.875 10.1687ZM9.99998 13.125C9.38191 13.125 8.77772 12.9417 8.26382 12.5983C7.74991 12.255 7.34937 11.7669 7.11285 11.1959C6.87633 10.6249 6.81444 9.99653 6.93502 9.39034C7.0556 8.78415 7.35323 8.22733 7.79027 7.79029C8.2273 7.35325 8.78413 7.05562 9.39032 6.93504C9.99651 6.81446 10.6248 6.87635 11.1959 7.11287C11.7669 7.3494 12.2549 7.74994 12.5983 8.26384C12.9417 8.77774 13.125 9.38193 13.125 10C13.125 10.8288 12.7957 11.6237 12.2097 12.2097C11.6236 12.7958 10.8288 13.125 9.99998 13.125Z" fill="#95A0B1"/>
</svg>
