<svg width="48" height="48" viewBox="0 0 48 48" fill="none" xmlns="http://www.w3.org/2000/svg">
<rect width="48" height="48" rx="24" fill="url(#paint0_linear_26_33)"/>
<path d="M33.6937 16.1569C33.6937 16.1569 33.6937 16.1662 33.6937 16.1709L28.2375 34.1653C28.1549 34.4576 27.9849 34.7176 27.7503 34.9105C27.5157 35.1034 27.2277 35.2199 26.925 35.2444C26.8819 35.2481 26.8387 35.25 26.7956 35.25C26.5119 35.2509 26.2339 35.1706 25.9944 35.0186C25.7548 34.8666 25.5638 34.6492 25.4437 34.3922L22.0959 27.3244C22.0629 27.2545 22.0523 27.176 22.0655 27.0998C22.0788 27.0236 22.1153 26.9534 22.17 26.8987L27.5381 21.5297C27.6728 21.3879 27.7468 21.1991 27.7443 21.0035C27.7418 20.8079 27.663 20.6211 27.5247 20.4828C27.3864 20.3445 27.1996 20.2657 27.004 20.2632C26.8084 20.2607 26.6196 20.3347 26.4778 20.4694L21.1012 25.8375C21.0466 25.8922 20.9764 25.9287 20.9002 25.942C20.824 25.9552 20.7455 25.9446 20.6756 25.9116L13.6444 22.5806C13.3682 22.4541 13.1358 22.2485 12.9766 21.9898C12.8174 21.7311 12.7385 21.431 12.75 21.1275C12.7653 20.8155 12.8782 20.5163 13.0729 20.272C13.2675 20.0277 13.534 19.8508 13.8347 19.7662L31.8291 14.31H31.8431C32.0993 14.238 32.3701 14.2355 32.6276 14.3027C32.8851 14.3699 33.1201 14.5044 33.3084 14.6924C33.4968 14.8803 33.6318 15.1151 33.6995 15.3724C33.7672 15.6298 33.7652 15.9005 33.6937 16.1569Z" fill="white"/>
<defs>
<linearGradient id="paint0_linear_26_33" x1="24" y1="0" x2="24" y2="48" gradientUnits="userSpaceOnUse">
<stop stop-color="#D5B5FE"/>
<stop offset="1" stop-color="#A976EA"/>
</linearGradient>
</defs>
</svg>
