<svg width="21" height="20" viewBox="0 0 21 20" fill="none" xmlns="http://www.w3.org/2000/svg">
<path fill-rule="evenodd" clip-rule="evenodd" d="M4.67142 13.3333V13.3333C4.66511 13.3798 4.66511 13.4269 4.67142 13.4733C4.67722 13.5125 4.68844 13.5506 4.70475 13.5867V13.5867C4.72236 13.6192 4.74242 13.6504 4.76475 13.68C4.79011 13.7222 4.82156 13.7604 4.85808 13.7933L4.93808 13.84C4.97657 13.8687 5.01931 13.8912 5.06475 13.9067H5.19808V13.9067C5.23871 13.946 5.28615 13.9776 5.33808 14H8.67142V14C9.03961 14 9.33808 13.7015 9.33808 13.3333C9.33808 12.9651 9.03961 12.6667 8.67142 12.6667H6.78475L9.45142 9.52667L12.3314 11.24C12.6132 11.4076 12.9751 11.3454 13.1848 11.0933L16.5181 7.09333H16.5181C16.7538 6.81048 16.7156 6.3901 16.4327 6.1544C16.4323 6.15404 16.4318 6.15369 16.4314 6.15333C16.3115 6.05395 16.1605 5.9997 16.0048 6C15.8065 5.99968 15.6183 6.08764 15.4914 6.24L12.5248 9.8L9.67808 8.09333C9.39935 7.92801 9.0421 7.98708 8.83142 8.23333L6.00475 11.5333V10C6.00475 9.63181 5.70627 9.33333 5.33808 9.33333C4.96989 9.33333 4.67142 9.63181 4.67142 10V13.3333V13.3333Z" fill="#A74040"/>
</svg>
