<svg width="48" height="48" viewBox="0 0 48 48" fill="none" xmlns="http://www.w3.org/2000/svg">
<rect width="48" height="48" rx="24" fill="url(#paint0_linear_26_34)"/>
<path d="M34.86 19.1428C34.6908 18.9953 34.4816 18.9014 34.2589 18.873C34.0362 18.8446 33.8102 18.883 33.6094 18.9834L28.9022 21.3272L24.9722 14.7993C24.8712 14.6318 24.7286 14.4933 24.5582 14.3971C24.3879 14.3009 24.1956 14.2504 24 14.2504C23.8044 14.2504 23.6121 14.3009 23.4418 14.3971C23.2714 14.4933 23.1288 14.6318 23.0278 14.7993L19.0978 21.33L14.3925 18.9862C14.1922 18.8867 13.967 18.8486 13.7451 18.8767C13.5232 18.9048 13.3146 18.9977 13.1453 19.1439C12.9761 19.2901 12.8538 19.4831 12.7938 19.6985C12.7338 19.914 12.7388 20.1423 12.8081 20.355L16.2769 30.9825C16.3117 31.0892 16.3702 31.1868 16.4478 31.268C16.5254 31.3491 16.6203 31.4118 16.7254 31.4514C16.8305 31.491 16.9432 31.5065 17.0551 31.4967C17.167 31.487 17.2752 31.4522 17.3719 31.395C17.3953 31.3809 19.7925 30 24 30C28.2075 30 30.6047 31.3809 30.6262 31.394C30.7229 31.4518 30.8314 31.4871 30.9436 31.4972C31.0557 31.5073 31.1687 31.492 31.2742 31.4525C31.3797 31.4129 31.4749 31.3502 31.5527 31.2688C31.6306 31.1874 31.6892 31.0896 31.7241 30.9825L35.1928 20.3578C35.2641 20.1451 35.2706 19.916 35.2113 19.6996C35.152 19.4833 35.0297 19.2894 34.86 19.1428ZM28.485 26.7C28.4544 26.8735 28.3637 27.0307 28.2288 27.144C28.0939 27.2573 27.9234 27.3195 27.7472 27.3197C27.7032 27.3196 27.6593 27.3158 27.6159 27.3084C25.2203 26.8972 22.7722 26.8972 20.3766 27.3084C20.2795 27.3255 20.1801 27.3234 20.0839 27.302C19.9878 27.2807 19.8967 27.2407 19.816 27.1842C19.653 27.0701 19.5421 26.8959 19.5075 26.7C19.4729 26.504 19.5176 26.3024 19.6317 26.1394C19.7458 25.9764 19.92 25.8655 20.1159 25.8309C22.684 25.3897 25.3085 25.3897 27.8766 25.8309C27.9739 25.8476 28.067 25.8833 28.1505 25.936C28.2341 25.9888 28.3063 26.0575 28.3632 26.1383C28.4201 26.219 28.4605 26.3102 28.482 26.4066C28.5036 26.503 28.5058 26.6027 28.4887 26.7H28.485Z" fill="white"/>
<defs>
<linearGradient id="paint0_linear_26_34" x1="24" y1="0" x2="24" y2="48" gradientUnits="userSpaceOnUse">
<stop stop-color="#8FB2E6"/>
<stop offset="1" stop-color="#7099D7"/>
</linearGradient>
</defs>
</svg>
