<svg width="61" height="18" viewBox="0 0 61 18" fill="none" xmlns="http://www.w3.org/2000/svg">
<g clip-path="url(#clip0_1_530)">
<path d="M23.0221 4.90741H19.6662C19.5551 4.90734 19.4476 4.94695 19.3631 5.01911C19.2786 5.09126 19.2227 5.19121 19.2054 5.30096L17.8481 13.9065C17.8419 13.9464 17.8444 13.9872 17.8554 14.0261C17.8665 14.065 17.8858 14.101 17.9121 14.1317C17.9384 14.1624 17.971 14.187 18.0078 14.2039C18.0445 14.2207 18.0845 14.2294 18.1249 14.2294H19.727C19.8382 14.2294 19.9457 14.1897 20.0302 14.1175C20.1147 14.0452 20.1706 13.9452 20.1878 13.8353L20.5539 11.5143C20.5711 11.4045 20.6269 11.3045 20.7113 11.2323C20.7957 11.16 20.9031 11.1203 21.0142 11.1203H22.0765C24.2872 11.1203 25.563 10.0505 25.8962 7.93066C26.0464 7.00322 25.9026 6.27452 25.4683 5.76418C24.9913 5.2038 24.1454 4.90741 23.0221 4.90741ZM23.4093 8.05039C23.2258 9.25458 22.3057 9.25458 21.416 9.25458H20.9096L21.2649 7.00567C21.2753 6.93988 21.3088 6.87996 21.3595 6.83669C21.4101 6.79342 21.4746 6.76964 21.5412 6.76964H21.7733C22.3793 6.76964 22.951 6.76964 23.2464 7.1151C23.4225 7.3212 23.4765 7.6274 23.4093 8.05039ZM33.0536 8.01162H31.4466C31.38 8.01162 31.3155 8.0354 31.2649 8.07867C31.2143 8.12193 31.1807 8.18186 31.1703 8.24765L31.0992 8.69714L30.9868 8.53422C30.6389 8.02929 29.8631 7.86048 29.0887 7.86048C27.3129 7.86048 25.7961 9.20551 25.5007 11.0923C25.3471 12.0335 25.5655 12.9334 26.0993 13.561C26.5891 14.1381 27.2898 14.3785 28.1235 14.3785C29.5544 14.3785 30.3479 13.4585 30.3479 13.4585L30.2762 13.905C30.2699 13.9449 30.2722 13.9858 30.2831 14.0247C30.294 14.0636 30.3133 14.0997 30.3395 14.1305C30.3657 14.1613 30.3983 14.186 30.435 14.203C30.4717 14.22 30.5116 14.2288 30.552 14.2289H31.9996C32.1108 14.2289 32.2183 14.1892 32.3028 14.117C32.3873 14.0447 32.4432 13.9447 32.4604 13.8348L33.3289 8.33451C33.3353 8.29467 33.333 8.25392 33.3221 8.21508C33.3112 8.17623 33.292 8.14021 33.2658 8.10951C33.2397 8.07881 33.2071 8.05416 33.1705 8.03726C33.1339 8.02036 33.094 8.01161 33.0536 8.01162ZM30.8136 11.1394C30.6585 12.0575 29.9298 12.6738 29.0004 12.6738C28.5337 12.6738 28.1608 12.5242 27.9213 12.2405C27.6838 11.9589 27.5935 11.558 27.6691 11.1114C27.8139 10.2012 28.5548 9.56471 29.47 9.56471C29.9264 9.56471 30.2973 9.71634 30.5417 10.0024C30.7866 10.2914 30.8837 10.6948 30.8136 11.1394ZM41.6126 8.01162H39.9976C39.9215 8.01174 39.8465 8.03044 39.7792 8.0661C39.7119 8.10176 39.6543 8.1533 39.6114 8.21625L37.3841 11.4971L36.44 8.34432C36.411 8.24816 36.3519 8.16389 36.2713 8.10397C36.1907 8.04405 36.0929 8.01167 35.9925 8.01162H34.4055C34.361 8.0115 34.3171 8.02203 34.2774 8.04232C34.2377 8.0626 34.2035 8.09207 34.1775 8.12827C34.1516 8.16446 34.1346 8.20633 34.1281 8.2504C34.1216 8.29447 34.1257 8.33945 34.1401 8.38161L35.9189 13.6018L34.2466 15.9625C34.2168 16.0044 34.1992 16.0536 34.1956 16.1048C34.192 16.156 34.2026 16.2073 34.2261 16.2529C34.2497 16.2985 34.2853 16.3367 34.3292 16.3634C34.373 16.3901 34.4234 16.4042 34.4747 16.4042H36.0877C36.163 16.4043 36.2372 16.3861 36.304 16.3513C36.3707 16.3164 36.428 16.2658 36.4709 16.204L41.8422 8.4508C41.8713 8.40886 41.8884 8.35974 41.8916 8.30878C41.8948 8.25782 41.8839 8.20696 41.8603 8.16172C41.8366 8.11647 41.801 8.07856 41.7574 8.0521C41.7137 8.02565 41.6636 8.01165 41.6126 8.01162Z" fill="#253B80"/>
<path d="M46.9597 4.9074H43.6032C43.4922 4.90744 43.3849 4.94711 43.3005 5.01925C43.2161 5.0914 43.1603 5.19128 43.143 5.30094L41.7857 13.9065C41.7793 13.9463 41.7818 13.9871 41.7927 14.0259C41.8037 14.0648 41.8229 14.1008 41.8491 14.1315C41.8753 14.1622 41.9079 14.1868 41.9445 14.2037C41.9812 14.2206 42.0211 14.2294 42.0614 14.2294H43.7838C43.8615 14.2292 43.9366 14.2014 43.9956 14.1509C44.0547 14.1003 44.0937 14.0303 44.1057 13.9536L44.4909 11.5143C44.5081 11.4045 44.5639 11.3045 44.6483 11.2323C44.7327 11.16 44.8401 11.1203 44.9512 11.1202H46.0131C48.2242 11.1202 49.4996 10.0505 49.8333 7.93064C49.9839 7.00321 49.8391 6.27451 49.4049 5.76417C48.9284 5.20378 48.0829 4.9074 46.9597 4.9074ZM47.3468 8.05037C47.1638 9.25457 46.2437 9.25457 45.3536 9.25457H44.8477L45.2034 7.00566C45.2136 6.93986 45.2471 6.87989 45.2976 6.8366C45.3482 6.7933 45.4126 6.76955 45.4792 6.76963H45.7113C46.3168 6.76963 46.889 6.76963 47.1844 7.11509C47.3606 7.32118 47.4141 7.62739 47.3468 8.05037ZM56.9907 8.01161H55.3846C55.318 8.01143 55.2535 8.03515 55.2029 8.07846C55.1523 8.12177 55.1189 8.1818 55.1088 8.24764L55.0377 8.69713L54.9248 8.53421C54.5769 8.02927 53.8016 7.86047 53.0273 7.86047C51.2514 7.86047 49.7351 9.2055 49.4397 11.0923C49.2866 12.0334 49.504 12.9334 50.0379 13.561C50.5286 14.1381 51.2283 14.3785 52.062 14.3785C53.4929 14.3785 54.2864 13.4585 54.2864 13.4585L54.2148 13.905C54.2084 13.945 54.2107 13.9859 54.2217 14.0249C54.2327 14.0639 54.252 14.1001 54.2783 14.1309C54.3047 14.1617 54.3373 14.1864 54.3742 14.2033C54.411 14.2202 54.451 14.2289 54.4915 14.2289H55.9386C56.0497 14.2288 56.1571 14.1891 56.2415 14.1168C56.3259 14.0446 56.3817 13.9446 56.3989 13.8348L57.268 8.33449C57.2741 8.29453 57.2716 8.25371 57.2604 8.21483C57.2493 8.17596 57.23 8.13994 57.2036 8.10927C57.1773 8.07859 57.1446 8.05398 57.1079 8.03712C57.0711 8.02027 57.0311 8.01156 56.9907 8.01161ZM54.7506 11.1394C54.5965 12.0575 53.8669 12.6738 52.9375 12.6738C52.4718 12.6738 52.0979 12.5241 51.8584 12.2405C51.6209 11.9589 51.5316 11.5579 51.6062 11.1114C51.7519 10.2011 52.4919 9.5647 53.4071 9.5647C53.8634 9.5647 54.2344 9.71632 54.4788 10.0024C54.7246 10.2914 54.8218 10.6948 54.7506 11.1394ZM58.8853 5.14343L57.5079 13.9065C57.5016 13.9463 57.504 13.9871 57.515 14.0259C57.5259 14.0648 57.5452 14.1008 57.5714 14.1315C57.5976 14.1622 57.6301 14.1868 57.6668 14.2037C57.7034 14.2206 57.7433 14.2294 57.7837 14.2294H59.1685C59.3986 14.2294 59.5939 14.0625 59.6292 13.8353L60.9875 5.23028C60.9938 5.19039 60.9914 5.14961 60.9805 5.11075C60.9695 5.07188 60.9503 5.03584 60.9241 5.00511C60.8979 4.97439 60.8653 4.9497 60.8287 4.93275C60.792 4.91579 60.7521 4.90698 60.7117 4.90691H59.1611C59.0945 4.90714 59.0302 4.93107 58.9797 4.97441C58.9291 5.01775 58.8957 5.07767 58.8853 5.14343Z" fill="#179BD7"/>
<path d="M3.91227 15.9017L4.16891 14.2716L3.59723 14.2583H0.867432L2.7645 2.22961C2.77015 2.19286 2.78882 2.15936 2.8171 2.13522C2.84539 2.11108 2.8814 2.0979 2.91859 2.0981H7.52142C9.04948 2.0981 10.104 2.41608 10.6546 3.04369C10.9127 3.33812 11.0771 3.64579 11.1566 3.98438C11.24 4.33965 11.2415 4.76411 11.16 5.28181L11.1541 5.31959V5.65131L11.4122 5.79754C11.6093 5.89737 11.7864 6.03241 11.9348 6.19599C12.1557 6.44773 12.2984 6.76767 12.3588 7.14698C12.4211 7.5371 12.4005 8.00131 12.2984 8.52685C12.1807 9.1314 11.9903 9.65793 11.7332 10.0888C11.5063 10.4747 11.2012 10.809 10.8376 11.0702C10.4961 11.3126 10.0903 11.4966 9.63146 11.6144C9.18688 11.7302 8.67998 11.7886 8.124 11.7886H7.76579C7.50964 11.7886 7.26085 11.8808 7.06555 12.0462C6.87053 12.2133 6.74115 12.4443 6.70046 12.6979L6.67348 12.8446L6.22006 15.7177L6.19945 15.8232C6.19405 15.8565 6.18473 15.8732 6.17099 15.8845C6.15768 15.8954 6.14108 15.9015 6.12388 15.9017H3.91227Z" fill="#253B80"/>
<path d="M11.6564 5.35788C11.6427 5.44572 11.627 5.53552 11.6093 5.62777C11.0023 8.74425 8.92566 9.82086 6.27339 9.82086H4.92297C4.59861 9.82086 4.32528 10.0564 4.27474 10.3763L3.58334 14.7613L3.38754 16.0043C3.37974 16.0536 3.38272 16.104 3.39627 16.152C3.40982 16.2001 3.43362 16.2446 3.46604 16.2826C3.49845 16.3205 3.5387 16.351 3.58403 16.3719C3.62935 16.3928 3.67867 16.4037 3.72859 16.4037H6.12373C6.40735 16.4037 6.64829 16.1976 6.69295 15.9179L6.7165 15.7962L7.16746 12.9344L7.19641 12.7774C7.24057 12.4967 7.482 12.2906 7.76563 12.2906H8.12385C10.4444 12.2906 12.261 11.3484 12.7919 8.62206C13.0137 7.48313 12.8989 6.53214 12.312 5.86331C12.126 5.65641 11.9039 5.48513 11.6564 5.35788Z" fill="#179BD7"/>
<path d="M11.0214 5.10468C10.8275 5.04861 10.6304 5.00485 10.431 4.97366C10.0372 4.91312 9.63908 4.88408 9.24058 4.8868H5.6329C5.49561 4.8867 5.3628 4.93571 5.2585 5.02499C5.15419 5.11427 5.08526 5.23792 5.06418 5.37358L4.29671 10.2345L4.27463 10.3763C4.29854 10.2216 4.37704 10.0805 4.49594 9.97863C4.61483 9.87675 4.76627 9.82078 4.92285 9.82086H6.27328C8.92555 9.82086 11.0022 8.74376 11.6092 5.62777C11.6274 5.53552 11.6426 5.44572 11.6563 5.35788C11.4962 5.27389 11.3292 5.20347 11.1573 5.14737C11.1122 5.13241 11.0669 5.11818 11.0214 5.10468Z" fill="#222D65"/>
<path d="M5.06429 5.37356C5.0852 5.23786 5.15409 5.11415 5.25845 5.02492C5.36281 4.93569 5.49571 4.88685 5.63302 4.88727H9.2407C9.6681 4.88727 10.067 4.91524 10.4312 4.97413C10.6775 5.01285 10.9205 5.07077 11.1579 5.14735C11.337 5.20672 11.5033 5.27689 11.6569 5.35786C11.8375 4.20617 11.6555 3.42202 11.0328 2.71197C10.3463 1.93027 9.10722 1.59561 7.52175 1.59561H2.91892C2.59505 1.59561 2.31879 1.83115 2.26873 2.15158L0.351542 14.3039C0.342612 14.3604 0.34601 14.418 0.361501 14.473C0.376993 14.528 0.40421 14.579 0.441282 14.6224C0.478353 14.6659 0.524398 14.7008 0.576251 14.7248C0.628103 14.7488 0.684531 14.7612 0.741654 14.7613H3.58334L4.29683 10.2345L5.06429 5.37356Z" fill="#253B80"/>
</g>
<defs>
<clipPath id="clip0_1_530">
<rect width="60.667" height="16.1374" fill="white" transform="translate(0.333344 0.93129)"/>
</clipPath>
</defs>
</svg>
