<svg width="50" height="11" viewBox="0 0 50 11" fill="none" xmlns="http://www.w3.org/2000/svg">
<g clip-path="url(#clip0_1_501)">
<path d="M48.6109 4.80012C48.6109 2.0374 46.6862 0.0942926 43.988 0.0942926C40.553 0.0942926 38.2508 2.58994 38.2508 6.15385C38.2508 8.93498 40.1939 10.8597 42.9382 10.8597C45.4338 10.8597 47.294 9.65328 48.0584 7.72859H45.2865C44.9181 8.32718 44.1353 8.70475 43.1776 8.70475C41.7041 8.70475 40.7832 7.72859 40.7004 6.34724H48.4544C48.5557 5.82232 48.6109 5.37108 48.6109 4.80012ZM40.9122 4.4778C41.1608 3.20695 42.3948 2.19396 43.8867 2.19396C45.1759 2.19396 46.1521 3.13328 46.1521 4.4778H40.9122ZM30.8006 10.611L31.2979 7.95882C32.8174 8.26272 33.0476 7.40628 33.4436 5.34345L33.637 4.32124C34.1896 1.43881 35.3039 0.00220218 38.4902 0.388982L37.9929 3.04119C36.4734 2.73729 36.2063 3.88842 35.8656 5.67497L35.6722 6.69718C35.1197 9.61645 33.9685 10.9978 30.8006 10.611ZM27.0802 10.6202L28.9588 0.342937H31.4361L29.5666 10.6202H27.0802ZM12.889 0.342937H15.2926L16.0754 7.77464L19.2249 0.342937H21.61L22.448 7.84831L25.487 0.342937H27.8814L23.5255 10.6202H20.7996L19.9155 3.54769L16.9042 10.6202H14.2704L12.889 0.342937Z" fill="#2E4369"/>
<path d="M3.91025 3.06881L1.05545 5.79469H5.90862L6.41511 4.60672H3.9563L5.49421 3.06881L4.60093 1.5309H8.77263L4.92325 10.6202H6.36907L10.7249 0.342935H2.30788L3.91025 3.06881Z" fill="#00B9FF"/>
</g>
<defs>
<clipPath id="clip0_1_501">
<rect width="49" height="10.9956" fill="white" transform="translate(0.333344 0.00219917)"/>
</clipPath>
</defs>
</svg>
