<svg width="48" height="48" viewBox="0 0 48 48" fill="none" xmlns="http://www.w3.org/2000/svg">
<rect width="48" height="48" rx="24" fill="url(#paint0_linear_26_32)"/>
<path d="M14.3203 22.8319C14.5418 20.9747 15.3014 19.2229 16.5056 17.7919C16.6389 17.6312 16.8042 17.5001 16.991 17.407C17.1778 17.3138 17.382 17.2607 17.5905 17.251C17.799 17.2413 18.0073 17.2752 18.2019 17.3506C18.3966 17.426 18.5733 17.5411 18.7209 17.6887L21.315 20.3381C21.5648 20.5874 21.7179 20.9173 21.7469 21.269C21.776 21.6207 21.679 21.9713 21.4734 22.2581C21.3177 22.479 21.2004 22.7247 21.1266 22.9847C21.1031 23.0614 21.0557 23.1286 20.9912 23.1763C20.9267 23.2241 20.8487 23.2499 20.7684 23.25H14.6934C14.6405 23.2501 14.5882 23.2389 14.5398 23.2174C14.4915 23.1958 14.4483 23.1642 14.413 23.1247C14.3778 23.0852 14.3513 23.0387 14.3353 22.9882C14.3193 22.9377 14.3142 22.8844 14.3203 22.8319ZM24.8803 14.2556C24.6731 14.2375 24.4645 14.2628 24.2675 14.3296C24.0706 14.3965 23.8898 14.5037 23.7364 14.6442C23.5831 14.7847 23.4607 14.9556 23.377 15.1459C23.2932 15.3363 23.25 15.542 23.25 15.75V19.5628C23.2474 19.9166 23.3711 20.2597 23.5987 20.5305C23.8264 20.8013 24.1432 20.9821 24.4922 21.0403C25.1493 21.1487 25.7517 21.4727 26.2044 21.9612C26.6571 22.4498 26.9343 23.075 26.9924 23.7385C27.0505 24.402 26.8862 25.0659 26.5254 25.6257C26.1645 26.1855 25.6277 26.6093 24.9994 26.8303C24.9263 26.8572 24.8631 26.9058 24.8185 26.9697C24.7739 27.0336 24.75 27.1096 24.75 27.1875V33.3028C24.7497 33.3559 24.7606 33.4085 24.7821 33.457C24.8035 33.5056 24.8351 33.549 24.8746 33.5845C24.9141 33.6199 24.9608 33.6466 25.0114 33.6627C25.0619 33.6787 25.1154 33.6839 25.1681 33.6778C27.508 33.3889 29.6648 32.2647 31.2416 30.512C32.8185 28.7593 33.7092 26.496 33.75 24.1387C33.8203 19.049 29.9241 14.7075 24.8803 14.2556ZM22.9922 26.8275C22.573 26.6779 22.1923 26.437 21.8777 26.1221C21.5631 25.8072 21.3226 25.4262 21.1734 25.0069C21.1479 24.9325 21.0999 24.8679 21.0361 24.8219C20.9723 24.7759 20.8958 24.7508 20.8172 24.75H14.6925C14.6395 24.7496 14.587 24.7606 14.5385 24.782C14.4901 24.8034 14.4467 24.8349 14.4112 24.8743C14.3758 24.9137 14.3491 24.9602 14.333 25.0107C14.3168 25.0612 14.3115 25.1145 14.3175 25.1672C14.5801 27.3341 15.5616 29.3505 17.1051 30.894C18.6486 32.4375 20.6649 33.4189 22.8319 33.6815C22.8846 33.6875 22.9379 33.6822 22.9884 33.6661C23.0389 33.6499 23.0853 33.6233 23.1248 33.5878C23.1642 33.5524 23.1956 33.509 23.2171 33.4605C23.2385 33.412 23.2494 33.3596 23.2491 33.3065V27.1875C23.2492 27.1082 23.2245 27.0308 23.1785 26.9662C23.1324 26.9017 23.0672 26.8531 22.9922 26.8275Z" fill="white"/>
<defs>
<linearGradient id="paint0_linear_26_32" x1="24" y1="0" x2="24" y2="48" gradientUnits="userSpaceOnUse">
<stop stop-color="#99E7FF"/>
<stop offset="1" stop-color="#4ACDF7"/>
</linearGradient>
</defs>
</svg>
